<svg id="visual" viewBox="0 0 1600 900" width="1600" height="900" xmlns="http://www.w3.org/2000/svg" xmlns:xlink="http://www.w3.org/1999/xlink" version="1.1"><rect x="0" y="0" width="1600" height="900" fill="#001220"></rect><defs><linearGradient id="grad1_0" x1="43.8%" y1="100%" x2="100%" y2="0%"><stop offset="14.444444444444446%" stop-color="#001220" stop-opacity="1"></stop><stop offset="85.55555555555554%" stop-color="#001220" stop-opacity="1"></stop></linearGradient></defs><defs><linearGradient id="grad2_0" x1="0%" y1="100%" x2="56.3%" y2="0%"><stop offset="14.444444444444446%" stop-color="#001220" stop-opacity="1"></stop><stop offset="85.55555555555554%" stop-color="#001220" stop-opacity="1"></stop></linearGradient></defs><g transform="translate(1600, 900)"><path d="M-585 0C-495 -40 -404.9 -80 -370.9 -120.5C-336.9 -161 -358.9 -201.9 -369.7 -268.6C-380.6 -335.3 -380.3 -427.8 -343.9 -473.3C-307.4 -518.7 -234.8 -517.1 -171.5 -527.8C-108.2 -538.6 -54.1 -561.8 0 -585L0 0Z" fill="#FBAE3C"></path></g><g transform="translate(0, 0)"><path d="M585 0C602.1 77.4 619.1 154.9 556.4 180.8C493.6 206.7 351.1 181 311.5 226.3C271.9 271.6 335.2 387.8 327.4 450.6C319.6 513.5 240.7 522.9 174.3 536.4C107.9 549.9 53.9 567.4 0 585L0 0Z" fill="#FBAE3C"></path></g></svg>