<svg id="visual" viewBox="0 0 1600 900" width="1600" height="900" xmlns="http://www.w3.org/2000/svg" xmlns:xlink="http://www.w3.org/1999/xlink" version="1.1"><rect x="0" y="0" width="1600" height="900" fill="#2b0446"></rect><path d="M1339 0L1094 0L1094 75L1205 75L1205 150L1205 150L1205 225L1021 225L1021 300L1236 300L1236 375L978 375L978 450L1033 450L1033 525L1273 525L1273 600L1320 600L1320 675L1310 675L1310 750L1300 750L1300 825L1154 825L1154 900L0 900L0 825L0 825L0 750L0 750L0 675L0 675L0 600L0 600L0 525L0 525L0 450L0 450L0 375L0 375L0 300L0 300L0 225L0 225L0 150L0 150L0 75L0 75L0 0L0 0Z" fill="#daff00"></path><path d="M904 0L824 0L824 75L1135 75L1135 150L1050 150L1050 225L767 225L767 300L922 300L922 375L1043 375L1043 450L878 450L878 525L994 525L994 600L806 600L806 675L904 675L904 750L939 750L939 825L986 825L986 900L0 900L0 825L0 825L0 750L0 750L0 675L0 675L0 600L0 600L0 525L0 525L0 450L0 450L0 375L0 375L0 300L0 300L0 225L0 225L0 150L0 150L0 75L0 75L0 0L0 0Z" fill="#d7e314"></path><path d="M786 0L889 0L889 75L609 75L609 150L637 150L637 225L793 225L793 300L717 300L717 375L605 375L605 450L793 450L793 525L788 525L788 600L794 600L794 675L817 675L817 750L761 750L761 825L771 825L771 900L0 900L0 825L0 825L0 750L0 750L0 675L0 675L0 600L0 600L0 525L0 525L0 450L0 450L0 375L0 375L0 300L0 300L0 225L0 225L0 150L0 150L0 75L0 75L0 0L0 0Z" fill="#d0c923"></path><path d="M606 0L598 0L598 75L423 75L423 150L345 150L345 225L599 225L599 300L348 300L348 375L469 375L469 450L532 450L532 525L556 525L556 600L540 600L540 675L624 675L624 750L466 750L466 825L496 825L496 900L0 900L0 825L0 825L0 750L0 750L0 675L0 675L0 600L0 600L0 525L0 525L0 450L0 450L0 375L0 375L0 300L0 300L0 225L0 225L0 150L0 150L0 75L0 75L0 0L0 0Z" fill="#c4b02d"></path><path d="M356 0L202 0L202 75L367 75L367 150L401 150L401 225L321 225L321 300L339 300L339 375L288 375L288 450L265 450L265 525L276 525L276 600L228 600L228 675L199 675L199 750L258 750L258 825L333 825L333 900L0 900L0 825L0 825L0 750L0 750L0 675L0 675L0 600L0 600L0 525L0 525L0 450L0 450L0 375L0 375L0 300L0 300L0 225L0 225L0 150L0 150L0 75L0 75L0 0L0 0Z" fill="#b59935"></path></svg>