<svg id="visual" viewBox="0 0 1600 900" width="1600" height="900" xmlns="http://www.w3.org/2000/svg" xmlns:xlink="http://www.w3.org/1999/xlink" version="1.1"><rect x="0" y="0" width="1600" height="900" fill="#f6cf94"></rect><defs><linearGradient id="grad1_0" x1="43.8%" y1="0%" x2="100%" y2="100%"><stop offset="14.444444444444446%" stop-color="#f6cf94" stop-opacity="1"></stop><stop offset="85.55555555555554%" stop-color="#f6cf94" stop-opacity="1"></stop></linearGradient></defs><defs><linearGradient id="grad2_0" x1="0%" y1="0%" x2="56.3%" y2="100%"><stop offset="14.444444444444446%" stop-color="#f6cf94" stop-opacity="1"></stop><stop offset="85.55555555555554%" stop-color="#f6cf94" stop-opacity="1"></stop></linearGradient></defs><g transform="translate(1600, 0)"><path d="M0 630C-70.8 574.8 -141.6 519.7 -196.3 474C-251.1 428.2 -289.7 391.9 -359.9 359.9C-430.1 328 -531.8 300.3 -582 241.1C-632.3 181.8 -631.2 90.9 -630 0L0 0Z" fill="#012"></path></g><g transform="translate(0, 900)"><path d="M0 -630C81.3 -605.9 162.6 -581.9 223.5 -539.5C284.4 -497.2 324.8 -436.6 388.2 -388.2C451.6 -339.8 537.9 -303.7 582 -241.1C626.2 -178.4 628.1 -89.2 630 0L0 0Z" fill="#012"></path></g></svg>